<svg width="26.000000" height="18.314941" viewBox="0 0 26 18.3149" fill="none" xmlns="http://www.w3.org/2000/svg" xmlns:xlink="http://www.w3.org/1999/xlink">
	<desc>
			Created with Pixso.
	</desc>
	<defs/>
	<path id="Vector" d="M22.96 3.32L22.96 2.96C22.96 1.33 21.63 0 19.99 0L2.96 0C1.33 6.1e-5 0 1.33 0 2.96L0 3.32L22.96 3.32Z" fill="#B1B1B1" fill-opacity="1.000000" fill-rule="nonzero"/>
	<path id="Vector" d="M13.56 12.85C13.56 11.32 14.05 9.85 14.97 8.65L0 8.65L0 12.79C0 14.42 1.33 15.75 2.96 15.75L14.19 15.75C13.78 14.85 13.56 13.87 13.56 12.85ZM11.48 11.96L8.92 11.96L8.92 10.43L11.48 10.43L11.48 11.96ZM3.41 10.43L7.39 10.43L7.39 11.96L3.41 11.96L3.41 10.43Z" fill="#B1B1B1" fill-opacity="1.000000" fill-rule="nonzero"/>
	<path id="Vector" d="M16.55 7.13C17.71 6.31 19.09 5.88 20.54 5.88C21.38 5.88 22.19 6.02 22.96 6.3L22.96 4.84L0 4.84L0 7.13L16.55 7.13Z" fill="#B1B1B1" fill-opacity="1.000000" fill-rule="nonzero"/>
	<path id="Vector" d="M26 12.85C26 9.84 23.55 7.4 20.54 7.4C17.53 7.4 15.08 9.84 15.08 12.85C15.08 15.87 17.53 18.31 20.54 18.31C23.55 18.31 26 15.87 26 12.85ZM21.27 15.77L21.27 16.39L20.51 16.39L20.51 16.39L20.51 16.39L19.75 16.39L19.75 15.77C19.29 15.62 18.91 15.34 18.55 15.07L19.45 13.84C19.94 14.21 20.19 14.38 20.54 14.38C20.74 14.38 20.89 14.29 20.95 14.14C21.03 13.95 20.92 13.79 20.68 13.69C20.68 13.69 19.59 13.33 19.09 12.81C18.67 12.38 18.53 11.77 18.67 11.2C18.8 10.62 19.19 10.16 19.75 9.93L19.75 9.32L21.27 9.32L21.27 9.91C21.66 10.02 21.99 10.18 22.18 10.28L21.45 11.62C20.97 11.35 20.53 11.28 20.35 11.34C20.19 11.39 20.16 11.5 20.15 11.54C20.14 11.6 20.13 11.69 20.22 11.79C20.31 11.89 21.26 12.28 21.26 12.28C22.27 12.69 22.75 13.73 22.37 14.7C22.17 15.2 21.77 15.58 21.27 15.77Z" fill="#B1B1B1" fill-opacity="1.000000" fill-rule="nonzero"/>
</svg>
