<svg width="24.253101" height="24.999969" viewBox="0 0 24.2531 25" fill="none" xmlns="http://www.w3.org/2000/svg" xmlns:xlink="http://www.w3.org/1999/xlink">
	<desc>
			Created with Pixso.
	</desc>
	<defs/>
	<path id="Vector" d="M14.11 15.33C18.31 15.33 21.72 11.89 21.72 7.66C21.72 3.44 18.31 0 14.11 0C9.92 0 6.51 3.44 6.51 7.66C6.51 11.89 9.92 15.33 14.11 15.33ZM11.67 10.06C11.89 9.72 12.34 9.62 12.68 9.84C13.18 10.17 13.36 10.2 14.01 10.19C14.65 10.19 15.02 9.71 15.09 9.28C15.12 9.06 15.14 8.54 14.49 8.32C13.74 8.05 12.96 7.74 12.43 7.32C11.89 6.9 11.64 6.17 11.78 5.42C11.94 4.6 12.5 3.96 13.26 3.73C13.27 3.73 13.28 3.72 13.28 3.72L13.28 3.44C13.28 3.04 13.61 2.71 14.02 2.71C14.42 2.71 14.75 3.04 14.75 3.44L14.75 3.68C15.25 3.79 15.59 4.02 15.73 4.13C16.06 4.37 16.12 4.83 15.88 5.15C15.64 5.48 15.18 5.54 14.86 5.3C14.71 5.19 14.29 4.95 13.69 5.13C13.33 5.24 13.24 5.59 13.22 5.69C13.18 5.9 13.23 6.09 13.33 6.17C13.7 6.46 14.37 6.72 14.98 6.94C16.1 7.33 16.73 8.37 16.53 9.52C16.44 10.08 16.15 10.61 15.73 10.99C15.45 11.26 15.11 11.44 14.75 11.55L14.75 11.88C14.75 12.29 14.42 12.62 14.02 12.62C13.61 12.62 13.28 12.29 13.28 11.88L13.28 11.62C12.81 11.57 12.41 11.42 11.88 11.07C11.54 10.85 11.45 10.39 11.67 10.06Z" fill="#B1B1B1" fill-opacity="1.000000" fill-rule="nonzero"/>
	<path id="Vector" d="M2.4 17.79L0.73 17.79C0.32 17.79 0 18.12 0 18.52L0 24.26C0 24.67 0.32 24.99 0.73 24.99L2.4 24.99L2.4 17.79L2.4 17.79Z" fill="#B1B1B1" fill-opacity="1.000000" fill-rule="nonzero"/>
	<path id="Vector" d="M24.03 17.74C22.66 16.37 20.43 16.37 19.06 17.74L16.86 19.93L15.97 20.83C15.6 21.2 15.11 21.4 14.6 21.4L10.23 21.4C9.83 21.4 9.49 21.1 9.47 20.7C9.45 20.28 9.79 19.93 10.21 19.93L14.65 19.93C15.54 19.93 16.32 19.3 16.47 18.42C16.5 18.22 16.52 18.01 16.52 17.8C16.52 17.39 16.19 17.06 15.79 17.06L13.36 17.06C12.56 17.06 11.8 16.7 10.99 16.32C10.14 15.92 9.26 15.5 8.24 15.44C7.34 15.38 6.44 15.47 5.56 15.73C4.63 16 3.95 16.83 3.87 17.79C3.87 17.79 3.86 17.79 3.86 17.79L3.86 24.99L16.47 25C17.34 25 18.15 24.66 18.77 24.04L24.03 18.78C24.32 18.49 24.32 18.03 24.03 17.74Z" fill="#B1B1B1" fill-opacity="1.000000" fill-rule="nonzero"/>
</svg>
