<svg width="20.000000" height="20.000000" viewBox="0 0 20 20" fill="none" xmlns="http://www.w3.org/2000/svg" xmlns:xlink="http://www.w3.org/1999/xlink">
	<desc>
			Created with Pixso.
	</desc>
	<defs>
		<clipPath id="clip20_822">
			<rect id="magnifying-glass 1" rx="-0.500000" width="19.000000" height="19.000000" transform="translate(0.500000 0.500000)" fill="white" fill-opacity="0"/>
		</clipPath>
	</defs>
	<rect id="magnifying-glass 1" rx="-0.500000" width="19.000000" height="19.000000" transform="translate(0.500000 0.500000)" fill="#B1B1B1" fill-opacity="0"/>
	<g clip-path="url(#clip20_822)">
		<path id="Vector" d="M19.33 18.21L14.73 13.6C15.87 12.21 16.56 10.43 16.56 8.49C16.56 4.04 12.94 0.42 8.49 0.42C4.03 0.42 0.42 4.04 0.42 8.49C0.42 12.94 4.03 16.56 8.49 16.56C10.43 16.56 12.21 15.87 13.6 14.73L18.2 19.33C18.51 19.64 19.02 19.64 19.33 19.33C19.64 19.02 19.64 18.51 19.33 18.21ZM8.49 14.95C4.92 14.95 2.03 12.05 2.03 8.49C2.03 4.93 4.92 2.03 8.49 2.03C12.05 2.03 14.96 4.93 14.96 8.49C14.96 12.05 12.05 14.95 8.49 14.95Z" fill="#718EBF" fill-opacity="1.000000" fill-rule="nonzero"/>
	</g>
</svg>
